<svg width="194" height="20" viewBox="0 0 194 20" fill="none" xmlns="http://www.w3.org/2000/svg">
<path d="M16.5568 10.2727C16.5568 12.1761 16.196 13.7955 15.4744 15.1307C14.7585 16.4659 13.7813 17.4858 12.5426 18.1903C11.3097 18.8892 9.9233 19.2386 8.38352 19.2386C6.83239 19.2386 5.44034 18.8864 4.20739 18.1818C2.97443 17.4773 2 16.4574 1.28409 15.1222C0.568182 13.7869 0.210227 12.1705 0.210227 10.2727C0.210227 8.36932 0.568182 6.75 1.28409 5.41477C2 4.07955 2.97443 3.0625 4.20739 2.36364C5.44034 1.65909 6.83239 1.30682 8.38352 1.30682C9.9233 1.30682 11.3097 1.65909 12.5426 2.36364C13.7813 3.0625 14.7585 4.07955 15.4744 5.41477C16.196 6.75 16.5568 8.36932 16.5568 10.2727ZM12.8153 10.2727C12.8153 9.03977 12.6307 8 12.2614 7.15341C11.8977 6.30682 11.3835 5.66477 10.7188 5.22727C10.054 4.78977 9.27557 4.57102 8.38352 4.57102C7.49148 4.57102 6.71307 4.78977 6.0483 5.22727C5.38352 5.66477 4.86648 6.30682 4.49716 7.15341C4.13352 8 3.9517 9.03977 3.9517 10.2727C3.9517 11.5057 4.13352 12.5455 4.49716 13.392C4.86648 14.2386 5.38352 14.8807 6.0483 15.3182C6.71307 15.7557 7.49148 15.9744 8.38352 15.9744C9.27557 15.9744 10.054 15.7557 10.7188 15.3182C11.3835 14.8807 11.8977 14.2386 12.2614 13.392C12.6307 12.5455 12.8153 11.5057 12.8153 10.2727ZM26.2621 5.90909V8.63636H18.1825V5.90909H26.2621ZM20.032 19V4.96307C20.032 4.0142 20.2166 3.22727 20.5859 2.60227C20.9609 1.97727 21.4723 1.50852 22.12 1.19602C22.7678 0.883522 23.5036 0.727272 24.3274 0.727272C24.8842 0.727272 25.3928 0.769886 25.853 0.855114C26.3189 0.940341 26.6655 1.01705 26.8928 1.08523L26.245 3.8125C26.103 3.76705 25.9268 3.72443 25.7166 3.68466C25.5121 3.64489 25.3018 3.625 25.0859 3.625C24.5518 3.625 24.1797 3.75 23.9695 4C23.7592 4.24432 23.6541 4.58807 23.6541 5.03125V19H20.032ZM35.5199 5.90909V8.63636H27.4403V5.90909H35.5199ZM29.2898 19V4.96307C29.2898 4.0142 29.4744 3.22727 29.8438 2.60227C30.2188 1.97727 30.7301 1.50852 31.3778 1.19602C32.0256 0.883522 32.7614 0.727272 33.5852 0.727272C34.142 0.727272 34.6506 0.769886 35.1108 0.855114C35.5767 0.940341 35.9233 1.01705 36.1506 1.08523L35.5028 3.8125C35.3608 3.76705 35.1847 3.72443 34.9744 3.68466C34.7699 3.64489 34.5597 3.625 34.3438 3.625C33.8097 3.625 33.4375 3.75 33.2273 4C33.017 4.24432 32.9119 4.58807 32.9119 5.03125V19H29.2898ZM43.2351 19.2557C41.8885 19.2557 40.7294 18.983 39.7578 18.4375C38.7919 17.8864 38.0476 17.108 37.5249 16.1023C37.0021 15.0909 36.7408 13.8949 36.7408 12.5142C36.7408 11.1676 37.0021 9.9858 37.5249 8.96875C38.0476 7.9517 38.7834 7.15909 39.7322 6.59091C40.6868 6.02273 41.8061 5.73864 43.0902 5.73864C43.9538 5.73864 44.7578 5.87784 45.5021 6.15625C46.2521 6.42898 46.9055 6.84091 47.4624 7.39205C48.0249 7.94318 48.4624 8.63636 48.7749 9.47159C49.0874 10.3011 49.2436 11.2727 49.2436 12.3864V13.3835H38.1896V11.1335H45.826C45.826 10.6108 45.7124 10.1477 45.4851 9.74432C45.2578 9.34091 44.9425 9.02557 44.5391 8.7983C44.1413 8.56534 43.6783 8.44886 43.1499 8.44886C42.5987 8.44886 42.1101 8.5767 41.6839 8.83239C41.2635 9.08239 40.9339 9.42045 40.6953 9.84659C40.4567 10.267 40.3345 10.7358 40.3288 11.2528V13.392C40.3288 14.0398 40.4482 14.5994 40.6868 15.071C40.9311 15.5426 41.2749 15.9062 41.718 16.1619C42.1612 16.4176 42.6868 16.5455 43.2947 16.5455C43.6982 16.5455 44.0675 16.4886 44.4027 16.375C44.7379 16.2614 45.0249 16.0909 45.2635 15.8636C45.5021 15.6364 45.6839 15.358 45.8089 15.0284L49.1669 15.25C48.9964 16.0568 48.647 16.7614 48.1186 17.3636C47.5959 17.9602 46.9197 18.4261 46.0902 18.7614C45.2663 19.0909 44.3146 19.2557 43.2351 19.2557ZM51.6129 19V5.90909H55.1328V8.19318H55.2692C55.5078 7.38068 55.9084 6.76705 56.4709 6.35227C57.0334 5.93182 57.6811 5.72159 58.4141 5.72159C58.5959 5.72159 58.7919 5.73295 59.0021 5.75568C59.2124 5.77841 59.397 5.80966 59.5561 5.84943V9.07102C59.3857 9.01989 59.1499 8.97443 58.8487 8.93466C58.5476 8.89489 58.272 8.875 58.022 8.875C57.4879 8.875 57.0107 8.99148 56.5902 9.22443C56.1754 9.4517 55.8459 9.76989 55.6016 10.179C55.3629 10.5881 55.2436 11.0597 55.2436 11.5938V19H51.6129ZM69.0526 5.90909V8.63636H61.169V5.90909H69.0526ZM62.9588 2.77273H66.5895V14.9773C66.5895 15.3125 66.6406 15.5739 66.7429 15.7614C66.8452 15.9432 66.9872 16.071 67.169 16.1449C67.3565 16.2187 67.5724 16.2557 67.8168 16.2557C67.9872 16.2557 68.1577 16.2415 68.3281 16.2131C68.4986 16.179 68.6293 16.1534 68.7202 16.1364L69.2912 18.8381C69.1094 18.8949 68.8537 18.9602 68.5241 19.0341C68.1946 19.1136 67.794 19.1619 67.3224 19.179C66.4474 19.2131 65.6804 19.0966 65.0213 18.8295C64.3679 18.5625 63.8594 18.1477 63.4957 17.5852C63.1321 17.0227 62.9531 16.3125 62.9588 15.4545V2.77273ZM75.1506 19.2472C74.3153 19.2472 73.571 19.1023 72.9176 18.8125C72.2642 18.517 71.7472 18.0824 71.3665 17.5085C70.9915 16.929 70.804 16.2074 70.804 15.3438C70.804 14.6165 70.9375 14.0057 71.2045 13.5114C71.4716 13.017 71.8352 12.6193 72.2955 12.3182C72.7557 12.017 73.2784 11.7898 73.8636 11.6364C74.4545 11.483 75.0739 11.375 75.7216 11.3125C76.483 11.233 77.0966 11.1591 77.5625 11.0909C78.0284 11.017 78.3665 10.9091 78.5767 10.767C78.7869 10.625 78.892 10.4148 78.892 10.1364V10.0852C78.892 9.54545 78.7216 9.12784 78.3807 8.83239C78.0455 8.53693 77.5682 8.3892 76.9489 8.3892C76.2955 8.3892 75.7756 8.53409 75.3892 8.82386C75.0028 9.10795 74.7472 9.46591 74.6222 9.89773L71.2642 9.625C71.4347 8.82955 71.7699 8.14205 72.2699 7.5625C72.7699 6.97727 73.4148 6.52841 74.2045 6.21591C75 5.89773 75.9205 5.73864 76.9659 5.73864C77.6932 5.73864 78.3892 5.82386 79.054 5.99432C79.7244 6.16477 80.3182 6.42898 80.8352 6.78693C81.358 7.14489 81.7699 7.60511 82.071 8.16761C82.3722 8.72443 82.5227 9.39205 82.5227 10.1705V19H79.0795V17.1847H78.9773C78.767 17.5938 78.4858 17.9545 78.1335 18.267C77.7812 18.5739 77.358 18.8153 76.8636 18.9915C76.3693 19.1619 75.7983 19.2472 75.1506 19.2472ZM76.1903 16.7415C76.7244 16.7415 77.196 16.6364 77.6051 16.4261C78.0142 16.2102 78.3352 15.9205 78.5682 15.5568C78.8011 15.1932 78.9176 14.7812 78.9176 14.321V12.9318C78.804 13.0057 78.6477 13.0739 78.4489 13.1364C78.2557 13.1932 78.0369 13.2472 77.7926 13.2983C77.5483 13.3437 77.304 13.3864 77.0597 13.4261C76.8153 13.4602 76.5938 13.4915 76.3949 13.5199C75.9688 13.5824 75.5966 13.6818 75.2784 13.8182C74.9602 13.9545 74.7131 14.1392 74.5369 14.3722C74.3608 14.5994 74.2727 14.8835 74.2727 15.2244C74.2727 15.7188 74.4517 16.0966 74.8097 16.358C75.1733 16.6136 75.6335 16.7415 76.1903 16.7415ZM90.8942 19V5.90909H94.5249V19H90.8942ZM92.718 4.22159C92.1783 4.22159 91.7152 4.04261 91.3288 3.68466C90.9482 3.32102 90.7578 2.88636 90.7578 2.38068C90.7578 1.88068 90.9482 1.4517 91.3288 1.09375C91.7152 0.730113 92.1783 0.548295 92.718 0.548295C93.2578 0.548295 93.718 0.730113 94.0987 1.09375C94.4851 1.4517 94.6783 1.88068 94.6783 2.38068C94.6783 2.88636 94.4851 3.32102 94.0987 3.68466C93.718 4.04261 93.2578 4.22159 92.718 4.22159ZM97.4332 19V5.90909H100.893V8.21875H101.047C101.32 7.4517 101.774 6.84659 102.411 6.40341C103.047 5.96023 103.808 5.73864 104.695 5.73864C105.592 5.73864 106.357 5.96307 106.987 6.41193C107.618 6.85511 108.038 7.45739 108.249 8.21875H108.385C108.652 7.46875 109.135 6.86932 109.834 6.42045C110.538 5.96591 111.371 5.73864 112.331 5.73864C113.553 5.73864 114.544 6.12784 115.305 6.90625C116.072 7.67898 116.456 8.77557 116.456 10.196V19H112.834V10.9119C112.834 10.1847 112.641 9.6392 112.254 9.27557C111.868 8.91193 111.385 8.73011 110.805 8.73011C110.146 8.73011 109.632 8.94034 109.263 9.3608C108.893 9.77557 108.709 10.3239 108.709 11.0057V19H105.189V10.8352C105.189 10.1932 105.004 9.68182 104.635 9.30114C104.271 8.92045 103.791 8.73011 103.195 8.73011C102.791 8.73011 102.428 8.83239 102.104 9.03693C101.786 9.2358 101.533 9.51705 101.345 9.88068C101.158 10.2386 101.064 10.6591 101.064 11.142V19H97.4332ZM119.256 19V16.8352L125.665 8.90057V8.80682H119.477V5.90909H130.037V8.26989L124.02 16.0085V16.1023H130.259V19H119.256ZM138.575 19.2557C137.251 19.2557 136.106 18.9744 135.14 18.4119C134.18 17.8437 133.438 17.054 132.915 16.0426C132.393 15.0256 132.131 13.8466 132.131 12.5057C132.131 11.1534 132.393 9.97159 132.915 8.96023C133.438 7.94318 134.18 7.15341 135.14 6.59091C136.106 6.02273 137.251 5.73864 138.575 5.73864C139.898 5.73864 141.04 6.02273 142.001 6.59091C142.967 7.15341 143.711 7.94318 144.234 8.96023C144.756 9.97159 145.018 11.1534 145.018 12.5057C145.018 13.8466 144.756 15.0256 144.234 16.0426C143.711 17.054 142.967 17.8437 142.001 18.4119C141.04 18.9744 139.898 19.2557 138.575 19.2557ZM138.592 16.4432C139.194 16.4432 139.697 16.2727 140.1 15.9318C140.504 15.5852 140.808 15.1136 141.012 14.517C141.222 13.9205 141.327 13.2415 141.327 12.4801C141.327 11.7188 141.222 11.0398 141.012 10.4432C140.808 9.84659 140.504 9.375 140.1 9.02841C139.697 8.68182 139.194 8.50852 138.592 8.50852C137.984 8.50852 137.472 8.68182 137.058 9.02841C136.648 9.375 136.339 9.84659 136.129 10.4432C135.924 11.0398 135.822 11.7188 135.822 12.4801C135.822 13.2415 135.924 13.9205 136.129 14.517C136.339 15.1136 136.648 15.5852 137.058 15.9318C137.472 16.2727 137.984 16.4432 138.592 16.4432ZM151.009 1.54545V19H147.379V1.54545H151.009ZM157.651 19.2472C156.815 19.2472 156.071 19.1023 155.418 18.8125C154.764 18.517 154.247 18.0824 153.866 17.5085C153.491 16.929 153.304 16.2074 153.304 15.3438C153.304 14.6165 153.438 14.0057 153.705 13.5114C153.972 13.017 154.335 12.6193 154.795 12.3182C155.256 12.017 155.778 11.7898 156.364 11.6364C156.955 11.483 157.574 11.375 158.222 11.3125C158.983 11.233 159.597 11.1591 160.062 11.0909C160.528 11.017 160.866 10.9091 161.077 10.767C161.287 10.625 161.392 10.4148 161.392 10.1364V10.0852C161.392 9.54545 161.222 9.12784 160.881 8.83239C160.545 8.53693 160.068 8.3892 159.449 8.3892C158.795 8.3892 158.276 8.53409 157.889 8.82386C157.503 9.10795 157.247 9.46591 157.122 9.89773L153.764 9.625C153.935 8.82955 154.27 8.14205 154.77 7.5625C155.27 6.97727 155.915 6.52841 156.705 6.21591C157.5 5.89773 158.42 5.73864 159.466 5.73864C160.193 5.73864 160.889 5.82386 161.554 5.99432C162.224 6.16477 162.818 6.42898 163.335 6.78693C163.858 7.14489 164.27 7.60511 164.571 8.16761C164.872 8.72443 165.023 9.39205 165.023 10.1705V19H161.58V17.1847H161.477C161.267 17.5938 160.986 17.9545 160.634 18.267C160.281 18.5739 159.858 18.8153 159.364 18.9915C158.869 19.1619 158.298 19.2472 157.651 19.2472ZM158.69 16.7415C159.224 16.7415 159.696 16.6364 160.105 16.4261C160.514 16.2102 160.835 15.9205 161.068 15.5568C161.301 15.1932 161.418 14.7812 161.418 14.321V12.9318C161.304 13.0057 161.148 13.0739 160.949 13.1364C160.756 13.1932 160.537 13.2472 160.293 13.2983C160.048 13.3437 159.804 13.3864 159.56 13.4261C159.315 13.4602 159.094 13.4915 158.895 13.5199C158.469 13.5824 158.097 13.6818 157.778 13.8182C157.46 13.9545 157.213 14.1392 157.037 14.3722C156.861 14.5994 156.773 14.8835 156.773 15.2244C156.773 15.7188 156.952 16.0966 157.31 16.358C157.673 16.6136 158.134 16.7415 158.69 16.7415ZM178.732 9.64205L175.408 9.84659C175.351 9.5625 175.229 9.30682 175.041 9.07955C174.854 8.84659 174.607 8.66193 174.3 8.52557C173.999 8.38352 173.638 8.3125 173.217 8.3125C172.655 8.3125 172.18 8.43182 171.794 8.67045C171.408 8.90341 171.214 9.21591 171.214 9.60795C171.214 9.92045 171.339 10.1847 171.589 10.4006C171.839 10.6165 172.268 10.7898 172.876 10.9205L175.246 11.3977C176.518 11.6591 177.467 12.0795 178.092 12.6591C178.717 13.2386 179.03 14 179.03 14.9432C179.03 15.8011 178.777 16.554 178.271 17.2017C177.771 17.8494 177.084 18.3551 176.209 18.7188C175.339 19.0767 174.337 19.2557 173.2 19.2557C171.467 19.2557 170.087 18.8949 169.058 18.1733C168.036 17.446 167.436 16.4574 167.26 15.2074L170.831 15.0199C170.939 15.5483 171.2 15.9517 171.615 16.2301C172.03 16.5028 172.561 16.6392 173.209 16.6392C173.845 16.6392 174.357 16.517 174.743 16.2727C175.135 16.0227 175.334 15.7017 175.339 15.3097C175.334 14.9801 175.195 14.7102 174.922 14.5C174.649 14.2841 174.229 14.1193 173.661 14.0057L171.393 13.554C170.115 13.2983 169.163 12.8551 168.538 12.2244C167.919 11.5937 167.609 10.7898 167.609 9.8125C167.609 8.97159 167.837 8.24716 168.291 7.6392C168.751 7.03125 169.396 6.5625 170.226 6.23295C171.061 5.90341 172.038 5.73864 173.158 5.73864C174.811 5.73864 176.112 6.08807 177.061 6.78693C178.016 7.4858 178.572 8.4375 178.732 9.64205ZM184.947 11.4318V19H181.316V1.54545H184.844V8.21875H184.998C185.293 7.44602 185.771 6.84091 186.43 6.40341C187.089 5.96023 187.915 5.73864 188.91 5.73864C189.819 5.73864 190.612 5.9375 191.288 6.33523C191.969 6.72727 192.498 7.29261 192.873 8.03125C193.254 8.7642 193.441 9.64205 193.435 10.6648V19H189.805V11.3125C189.81 10.5057 189.606 9.87784 189.191 9.42898C188.782 8.98011 188.208 8.75568 187.469 8.75568C186.975 8.75568 186.538 8.8608 186.157 9.07102C185.782 9.28125 185.487 9.58807 185.271 9.99148C185.06 10.3892 184.952 10.8693 184.947 11.4318Z" fill="#F0400F"/>
</svg>
